Coordinates
version=1
nRows=29
nColumns=24
inDegrees=yes

Units are S.I. units (second, meters, Newtons, ...)
Angles are in degrees.

endheader
time	pelvis_tilt	pelvis_list	pelvis_rotation	pelvis_tx	pelvis_ty	pelvis_tz	hip_flexion_r	hip_adduction_r	hip_rotation_r	knee_angle_r	ankle_angle_r	subtalar_angle_r	mtp_angle_r	hip_flexion_l	hip_adduction_l	hip_rotation_l	knee_angle_l	ankle_angle_l	subtalar_angle_l	mtp_angle_l	lumbar_extension	lumbar_bending	lumbar_rotation
      1.61300000	      5.55689861	      3.34538896	     -0.83569612	      0.43066929	      1.01057600	      0.30867238	      9.86239996	     -3.78129405	      1.57245454	    -63.72991746	     -0.73482459	    -18.50700240	     -4.52918997	      1.34042771	      8.90719712	      1.14220338	    -12.05445149	      2.41577926	    -13.65138641	      0.09078773	     -5.04638837	     -1.68887450	      3.89790145
      1.61716667	      5.61873812	      3.23003232	     -0.66780627	      0.43520591	      1.01113251	      0.30819585	     10.36524131	     -3.65428477	      1.48894930	    -63.38753652	     -0.19991747	    -18.62466128	     -4.59498034	      0.83324441	      8.80295885	      1.33520514	    -11.79095957	      2.47175971	    -13.61360475	      0.06068449	     -5.14987720	     -1.52151623	      3.79998527
      1.62133333	      5.72902935	      3.12682624	     -0.50986017	      0.43974127	      1.01172484	      0.30773577	     10.80177279	     -3.54025527	      1.41864914	    -63.00092837	      0.33395830	    -18.73512083	     -4.66867214	      0.25934058	      8.70963224	      1.53516124	    -11.49642788	      2.53382781	    -13.59463563	      0.02613230	     -5.31035209	     -1.38466715	      3.64188319
      1.62550000	      5.87070344	      3.03309215	     -0.35492798	      0.44428642	      1.01234203	      0.30728868	     11.18488285	     -3.43340480	      1.36178831	    -62.55753479	      0.80178504	    -18.79571048	     -4.81972915	     -0.36771978	      8.62462664	      1.76169193	    -11.16169884	      2.58173673	    -13.62379538	     -0.04486960	     -5.49972073	     -1.27616888	      3.37438827
      1.62966667	      5.92262611	      2.92634135	     -0.18093615	      0.44878891	      1.01279538	      0.30682935	     11.66453670	     -3.31382405	      1.28802706	    -62.09596270	      1.29104272	    -18.83679673	     -4.88351052	     -0.85181093	      8.51546513	      1.94473457	    -10.91381806	      2.65941961	    -13.56130114	     -0.07495328	     -5.59304264	     -1.12033782	      3.27856914
      1.63383333	      6.00863918	      2.82888570	     -0.01286517	      0.45329181	      1.01327240	      0.30638731	     12.09171210	     -3.20279036	      1.22492040	    -61.58947425	      1.76055848	    -18.85168976	     -4.94758650	     -1.37958399	      8.41213789	      2.12659122	    -10.65056486	      2.74730946	    -13.49987698	     -0.10529326	     -5.72401218	     -0.98781079	      3.13115478
      1.63800000	      6.10676984	      2.74546443	      0.15462997	      0.45779070	      1.01373713	      0.30591907	     12.49258623	     -3.11666557	      1.15781348	    -61.03909371	      2.15601951	    -18.74551899	     -5.58614909	     -1.95038162	      8.33238035	      2.40329026	    -10.32571265	      2.79318253	    -13.62524394	     -0.40458891	     -5.86559165	     -0.86856276	      2.75407416
      1.64216667	      6.17754872	      2.66032897	      0.31957628	      0.46225761	      1.01411203	      0.30550386	     12.92087690	     -3.01837860	      1.10171705	    -60.47415268	      2.59993631	    -18.76520960	     -5.63309116	     -2.44047605	      8.22911579	      2.53137547	    -10.09472208	      2.90035572	    -13.45821622	     -0.42368181	     -5.98741811	     -0.74967157	      2.71656907
      1.64633333	      6.27339894	      2.57526298	      0.47782180	      0.46673293	      1.01451645	      0.30511562	     13.29913577	     -2.91505562	      1.05932261	    -59.85021045	      2.98468420	    -18.71410964	     -5.69844147	     -2.96546462	      8.12365865	      2.66665920	     -9.84969038	      3.03217154	    -13.33672355	     -0.45073064	     -6.12365430	     -0.64954582	      2.57054234
      1.65050000	      6.35701853	      2.49156946	      0.64271357	      0.47119278	      1.01487483	      0.30470905	     13.68039053	     -2.81966915	      1.00475364	    -59.19594380	      3.33396972	    -18.65345181	     -5.76259085	     -3.47553314	      8.01771002	      2.81793285	     -9.60308519	      3.14817793	    -13.23079670	     -0.47640928	     -6.25491388	     -0.53236057	      2.40914912
      1.65466667	      6.40447646	      2.41568033	      0.80613863	      0.47563050	      1.01513796	      0.30429776	     14.09809408	     -2.73588684	      0.95235316	    -58.52427213	      3.65306069	    -18.58993422	     -5.81527024	     -3.93870084	      7.92029285	      2.97236503	     -9.36713872	      3.26374457	    -13.13094889	     -0.49610640	     -6.35325691	     -0.40809373	      2.26394391
      1.65883333	      6.51692761	      2.36564128	      0.94850458	      0.48007727	      1.01546226	      0.30391736	     14.42865423	     -2.67930243	      0.91852820	    -57.81348659	      3.92958669	    -18.47340050	     -5.92284995	     -4.48918244	      7.84758226	      3.11318371	     -9.09592807	      3.38315693	    -13.04483158	     -0.53670194	     -6.51943966	     -0.33766114	      2.01213807
      1.66300000	      6.57895860	      2.29711371	      1.11012979	      0.48450932	      1.01570172	      0.30353065	     14.79825013	     -2.60224167	      0.86822488	    -57.06752612	      4.18867018	    -18.39779680	     -6.03895592	     -4.96623036	      7.75138885	      3.26674676	     -8.86098082	      3.50130549	    -12.95759093	     -0.57745696	     -6.62709389	     -0.23798363	      1.83258885
      1.66716667	      6.62651245	      2.23720546	      1.26555171	      0.48892685	      1.01588738	      0.30315015	     15.17399843	     -2.53474336	      0.82556878	    -56.29650845	      4.41961975	    -18.32629646	     -6.15421104	     -5.42175948	      7.66332671	      3.41115655	     -8.63349007	      3.62304611	    -12.87345857	     -0.61467224	     -6.71836119	     -0.14974699	      1.67024391
      1.67133333	      6.64150670	      2.17544553	      1.42923129	      0.49334113	      1.01601592	      0.30277706	     15.56970039	     -2.46562667	      0.77598922	    -55.49410991	      4.62885981	    -18.28819319	     -6.21191922	     -5.82775973	      7.57033774	      3.55169725	     -8.43266135	      3.73321734	    -12.78415978	     -0.63046609	     -6.76953949	     -0.05595357	      1.57595430
      1.67550000	      6.69593355	      2.11845686	      1.58105612	      0.49774423	      1.01615608	      0.30241339	     15.90921220	     -2.40099563	      0.73329148	    -54.66115793	      4.80008665	    -18.24143543	     -6.28177306	     -6.28496887	      7.48071070	      3.68874368	     -8.21277316	      3.85993944	    -12.69788633	     -0.64813370	     -6.86689153	      0.02940402	      1.42193476
      1.67966667	      6.74288848	      2.06691991	      1.72698902	      0.50214977	      1.01627546	      0.30206094	     16.24321229	     -2.34388260	      0.69109124	    -53.80238371	      4.93965291	    -18.21069408	     -6.35230617	     -6.73575947	      7.39569421	      3.82672414	     -7.98798697	      3.97614426	    -12.61738118	     -0.66465707	     -6.96009425	      0.11242333	      1.27062024
      1.68383333	      6.79624484	      2.03108795	      1.85620377	      0.50654375	      1.01635405	      0.30172964	     16.56548126	     -2.30138544	      0.66108412	    -52.93054744	      5.04238788	    -18.19386224	     -6.47302134	     -7.20005164	      7.32871606	      3.96356335	     -7.74763314	      4.09559290	    -12.55802859	     -0.69341057	     -7.06934592	      0.16952186	      1.05906705
      1.68800000	      6.75835541	      2.01098932	      1.97879196	      0.51092959	      1.01628542	      0.30141977	     16.98436792	     -2.27325644	      0.65130119	    -52.05621325	      5.16248675	    -18.18980577	     -6.50170978	     -7.54855248	      7.28153303	      4.08996837	     -7.53864435	      4.20575864	    -12.46958151	     -0.69678105	     -7.05299721	      0.21237585	      1.01876834
      1.69216667	      6.84288504	      1.94744020	      2.13093446	      0.51531446	      1.01639187	      0.30108145	     17.22341702	     -2.20440725	      0.58453706	    -51.09840630	      5.20258749	    -18.22428955	     -6.62126195	     -8.03432422	      7.17599154	      4.24094957	     -7.32192150	      4.32389582	    -12.43946926	     -0.72277850	     -7.20548547	      0.30374989	      0.78621699
      1.69633333	      6.84050218	      1.91257944	      2.27024807	      0.51969665	      1.01632323	      0.30075774	     17.56534687	     -2.17112218	      0.52834268	    -50.16354854	      5.28373420	    -18.23732384	     -6.68644520	     -8.41415301	      7.10639505	      4.38062551	     -7.12794708	      4.43369494	    -12.38802005	     -0.73526757	     -7.24169309	      0.36577349	      0.70063758
      1.70050000	      6.86550622	      1.88327490	      2.39503988	      0.52407165	      1.01628441	      0.30044902	     17.85783022	     -2.13616089	      0.49497559	    -49.19110488	      5.30842005	    -18.27834174	     -6.77046637	     -8.83029950	      7.04315233	      4.52708738	     -6.92078876	      4.54239235	    -12.35392152	     -0.75259566	     -7.30798447	      0.42718475	      0.55967726
      1.70466667	      6.82822427	      1.88494680	      2.48442306	      0.52844656	      1.01609432	      0.30020551	     18.23324712	     -2.12701036	      0.49689599	    -48.25317559	      5.37402531	    -18.30055996	     -6.80417926	     -9.18742764	      7.01903110	      4.64822689	     -6.69423872	      4.66183052	    -12.28231045	     -0.75715193	     -7.30651612	      0.43324300	      0.50211976
      1.70883333	      6.87694112	      1.81679293	      2.63375743	      0.53284005	      1.01606525	      0.29989006	     18.45180696	     -2.05922292	      0.40434619	    -47.20469708	      5.33322499	    -18.39228818	     -6.88736038	     -9.61622086	      6.90482283	      4.78859900	     -6.51396626	      4.77040348	    -12.29031013	     -0.77638752	     -7.40479269	      0.53767313	      0.33281261
      1.71300000	      6.87638707	      1.79911498	      2.73839162	      0.53722212	      1.01590260	      0.29963557	     18.73990399	     -2.03311659	      0.37238334	    -46.19470347	      5.34101348	    -18.46746227	     -6.96111724	    -10.00832687	      6.85353123	      4.92822136	     -6.29819091	      4.87538254	    -12.26243547	     -0.79430942	     -7.43805181	      0.57469192	      0.20999203
      1.71716667	      6.88343693	      1.77351954	      2.83477533	      0.54158657	      1.01572752	      0.29942029	     19.00554196	     -1.98767064	      0.35819986	    -45.15994273	      5.30636737	    -18.57823805	     -7.07282764	    -10.40512375	      6.79239121	      5.07509167	     -6.08895486	      4.97613248	    -12.26230227	     -0.82638553	     -7.51570144	      0.61090957	      0.05416331
      1.72133333	      6.85879426	      1.76380465	      2.93293353	      0.54599654	      1.01547320	      0.29918014	     19.29818210	     -1.97652814	      0.30720204	    -44.13157579	      5.31991667	    -18.62006408	     -7.14053700	    -10.76330473	      6.74987026	      5.19061414	     -5.89423632	      5.09258005	    -12.23965259	     -0.84671136	     -7.50518936	      0.64577222	     -0.02041951
      1.72550000	      6.87107704	      1.73628837	      3.01969926	      0.55037747	      1.01526825	      0.29900034	     19.52663049	     -1.92527178	      0.29027731	    -43.05776635	      5.27398863	    -18.71487333	     -7.24595606	    -11.16567367	      6.68335556	      5.32556464	     -5.68582810	      5.19702873	    -12.23009620	     -0.88375006	     -7.58586274	      0.68207906	     -0.15172802
      1.72966667	      6.82875950	      1.71933374	      3.10524774	      0.55480520	      1.01492397	      0.29880065	     19.81486767	     -1.90033802	      0.24599928	    -42.00601858	      5.27332311	    -18.75041341	     -7.31962525	    -11.50051153	      6.63306819	      5.43008214	     -5.50214732	      5.32206113	    -12.21592896	     -0.91186366	     -7.56485918	      0.71438379	     -0.22525197
